<?xml version="1.0" standalone="no"?>
<!DOCTYPE svg PUBLIC "-//W3C//DTD SVG 20010904//EN"
 "http://www.w3.org/TR/2001/REC-SVG-20010904/DTD/svg10.dtd">
<svg version="1.0" xmlns="http://www.w3.org/2000/svg"
 width="4101.000000pt" height="3642.000000pt" viewBox="0 0 4101.000000 3642.000000"
 preserveAspectRatio="xMidYMid meet">

<g transform="translate(0.000000,3642.000000) scale(0.100000,-0.100000)"
fill="#000000" stroke="none">
<path d="M20293 15139 c-129 -22 -241 -89 -305 -185 -49 -73 -63 -121 -63
-224 0 -76 3 -93 33 -152 51 -104 133 -172 309 -258 164 -80 224 -130 243
-201 26 -94 -14 -180 -103 -224 -94 -45 -267 -33 -404 29 l-51 24 -26 -105
c-15 -57 -24 -108 -21 -113 9 -15 109 -48 195 -64 153 -29 323 -14 437 41 193
91 288 324 213 524 -45 121 -125 191 -334 293 -72 36 -147 78 -167 95 -43 36
-69 86 -69 134 0 163 186 227 420 146 34 -12 63 -19 65 -18 3 4 55 193 55 202
0 9 -123 46 -190 57 -75 11 -163 11 -237 -1z"/>
<path d="M23996 15124 c-368 -82 -582 -397 -551 -813 25 -344 211 -577 507
-636 150 -29 374 -17 551 32 l57 16 0 373 0 374 -235 0 -235 0 0 -100 0 -99
113 -3 112 -3 3 -187 2 -187 -38 -12 c-24 -7 -82 -10 -144 -7 -97 3 -110 6
-181 41 -126 62 -201 170 -232 331 -59 307 58 574 286 653 112 38 300 35 409
-6 28 -11 52 -16 54 -13 10 19 49 202 43 208 -3 4 -37 15 -74 26 -94 27 -348
34 -447 12z"/>
<path d="M26538 15130 c-48 -5 -101 -11 -118 -15 l-30 -7 0 -719 0 -719 125 0
125 0 0 301 0 301 99 -4 c85 -3 104 -7 137 -29 60 -40 89 -105 129 -286 19
-87 44 -186 56 -220 l21 -63 133 0 134 0 -15 36 c-8 20 -38 129 -65 242 -27
114 -60 230 -73 257 -29 63 -76 119 -116 135 -16 7 -30 15 -30 19 0 3 20 17
45 30 58 30 141 119 166 176 50 113 45 259 -13 368 -49 91 -135 152 -260 183
-75 18 -325 26 -450 14z m351 -205 c104 -36 146 -98 146 -215 0 -163 -91 -240
-292 -248 l-103 -4 0 235 c0 179 3 237 13 240 29 12 196 6 236 -8z"/>
<path d="M8580 15123 c0 -5 95 -333 212 -730 l212 -723 145 0 146 0 204 658
c113 361 215 690 227 730 l22 72 -137 0 -138 0 -67 -242 c-136 -488 -186 -676
-211 -793 -15 -66 -29 -127 -32 -135 -3 -8 -20 52 -38 133 -19 82 -87 348
-152 593 l-118 444 -137 0 c-76 0 -138 -3 -138 -7z"/>
<path d="M10180 14400 l0 -730 125 0 125 0 0 730 0 730 -125 0 -125 0 0 -730z"/>
<path d="M11000 14400 l0 -730 400 0 400 0 0 105 0 105 -272 2 -273 3 -3 218
-2 217 245 0 245 0 0 105 0 105 -242 2 -243 3 0 190 0 190 258 3 257 2 0 105
0 105 -385 0 -385 0 0 -730z"/>
<path d="M12180 15020 l0 -110 185 0 185 0 0 -620 0 -620 130 0 130 0 0 620 0
620 185 0 185 0 0 110 0 110 -500 0 -500 0 0 -110z"/>
<path d="M13620 14400 l0 -730 115 0 115 0 -1 413 c-1 226 -4 478 -8 559 -3
80 -3 144 0 142 3 -2 14 -25 24 -51 34 -92 194 -410 368 -733 l175 -325 131
-3 131 -3 0 731 0 730 -116 0 -116 0 5 -522 c3 -288 8 -536 11 -553 l6 -30
-15 30 c-8 17 -43 94 -79 173 -35 79 -156 314 -268 522 l-203 380 -137 0 -138
0 0 -730z"/>
<path d="M15336 14412 c-115 -394 -211 -723 -213 -730 -4 -10 23 -12 127 -10
l133 3 47 170 c26 94 50 182 54 198 l6 27 207 -2 207 -3 56 -195 56 -195 136
-3 136 -3 -94 323 c-51 178 -146 506 -211 731 l-118 407 -160 0 -160 0 -209
-718z m388 378 c15 -63 51 -204 82 -313 30 -110 53 -201 51 -203 -2 -3 -76 -3
-164 -2 l-161 3 52 186 c29 102 65 245 81 317 16 73 30 131 31 129 2 -1 14
-54 28 -117z"/>
<path d="M16800 15101 c0 -17 -20 -332 -45 -701 -25 -369 -45 -684 -45 -701
l0 -29 114 0 114 0 6 73 c10 124 36 646 43 862 6 203 15 256 27 171 17 -110
89 -375 292 -1068 5 -16 19 -18 103 -18 l98 0 126 403 c69 221 142 461 161
532 66 246 61 240 63 75 2 -80 12 -334 23 -566 11 -231 20 -430 20 -442 0 -21
3 -22 125 -22 l124 0 -5 48 c-2 26 -20 331 -39 677 -19 347 -38 654 -41 683
l-5 52 -157 0 -157 0 -37 -117 c-19 -65 -66 -215 -103 -333 -37 -118 -91 -309
-120 -424 -30 -114 -56 -210 -57 -212 -2 -2 -14 43 -27 99 -30 138 -105 408
-199 722 l-77 260 -163 3 -162 2 0 -29z"/>
<path d="M18680 14400 l0 -730 400 0 400 0 0 105 0 105 -272 2 -273 3 -3 218
-2 217 245 0 245 0 0 105 0 105 -242 2 -243 3 0 190 0 190 258 3 257 2 0 105
0 105 -385 0 -385 0 0 -730z"/>
<path d="M21270 14400 l0 -730 400 0 400 0 0 105 0 105 -272 2 -273 3 -3 218
-2 217 245 0 245 0 0 105 0 105 -242 2 -243 3 0 190 0 190 258 3 257 2 0 105
0 105 -385 0 -385 0 0 -730z"/>
<path d="M25090 14400 l0 -730 400 0 400 0 0 105 0 105 -272 2 -273 3 -3 218
-2 217 245 0 245 0 0 105 0 105 -242 2 -243 3 0 190 0 190 258 3 257 2 0 105
0 105 -385 0 -385 0 0 -730z"/>
<path d="M27850 15101 c0 -17 -20 -332 -45 -701 -25 -369 -45 -684 -45 -701
l0 -29 114 0 114 0 6 73 c10 124 36 646 43 862 6 203 15 256 27 171 17 -110
89 -375 292 -1068 5 -16 19 -18 103 -18 l98 0 126 403 c69 221 142 461 161
532 66 246 61 240 63 75 2 -80 12 -334 23 -566 11 -231 20 -430 20 -442 0 -21
3 -22 125 -22 l124 0 -5 48 c-2 26 -20 331 -39 677 -19 347 -38 654 -41 683
l-5 52 -157 0 -157 0 -37 -117 c-19 -65 -66 -215 -103 -333 -37 -118 -91 -309
-120 -424 -30 -114 -56 -210 -57 -212 -2 -2 -14 43 -27 99 -30 138 -105 408
-199 722 l-77 260 -163 3 -162 2 0 -29z"/>
<path d="M29826 14412 c-115 -394 -211 -723 -213 -730 -4 -10 23 -12 127 -10
l133 3 47 170 c26 94 50 182 54 198 l6 27 207 -2 207 -3 56 -195 56 -195 136
-3 136 -3 -94 323 c-51 178 -146 506 -211 731 l-118 407 -160 0 -160 0 -209
-718z m388 378 c15 -63 51 -204 82 -313 30 -110 53 -201 51 -203 -2 -3 -76 -3
-164 -2 l-161 3 52 186 c29 102 65 245 81 317 16 73 30 131 31 129 2 -1 14
-54 28 -117z"/>
<path d="M31250 14400 l0 -730 115 0 115 0 -1 413 c-1 226 -4 478 -8 559 -3
80 -3 144 0 142 3 -2 14 -25 24 -51 34 -92 194 -410 368 -733 l175 -325 131
-3 131 -3 0 731 0 730 -116 0 -116 0 5 -522 c3 -288 8 -536 11 -553 l6 -30
-15 30 c-8 17 -43 94 -79 173 -35 79 -156 314 -268 522 l-203 380 -137 0 -138
0 0 -730z"/>
<path d="M22480 14250 l0 -90 265 0 265 0 0 90 0 90 -265 0 -265 0 0 -90z"/>
<path d="M21185 12654 c-22 -2 -68 -7 -102 -10 l-63 -6 0 -484 0 -484 65 0 65
0 0 210 0 210 85 0 c149 0 188 -36 231 -212 14 -57 32 -127 40 -155 l15 -53
69 0 69 0 -14 33 c-7 17 -28 92 -45 164 -37 151 -75 225 -129 254 l-34 18 28
11 c92 35 155 132 155 239 0 125 -66 213 -184 246 -55 15 -186 25 -251 19z
m218 -126 c72 -41 105 -113 87 -192 -12 -53 -38 -86 -91 -116 -37 -21 -60 -25
-146 -28 l-103 -4 0 180 0 181 33 4 c69 10 179 -2 220 -25z"/>
<path d="M22385 12642 c-67 -23 -120 -65 -153 -121 -23 -39 -27 -57 -27 -122
0 -67 4 -81 30 -124 37 -59 111 -111 223 -155 54 -21 100 -48 130 -75 44 -40
46 -44 49 -106 5 -78 -15 -117 -79 -151 -36 -19 -58 -23 -128 -22 -81 0 -97 4
-201 48 -23 10 -59 -91 -38 -105 75 -48 287 -67 383 -34 131 45 196 134 196
270 0 80 -35 153 -97 200 -24 18 -90 53 -145 77 -62 26 -118 59 -146 83 -39
36 -45 47 -49 90 -6 59 20 106 77 139 50 30 176 29 242 -1 l47 -21 17 50 c9
27 12 53 8 58 -41 39 -251 52 -339 22z"/>
<path d="M15080 12319 c0 -370 7 -426 63 -520 36 -60 103 -111 170 -130 69
-20 203 -14 269 11 66 25 136 87 168 150 43 83 50 154 50 498 l0 322 -65 0
-64 0 -3 -352 c-3 -344 -4 -354 -26 -403 -13 -27 -33 -61 -45 -74 -78 -84
-246 -80 -320 9 -61 72 -61 73 -65 463 l-3 357 -65 0 -64 0 0 -331z"/>
<path d="M16450 12160 l0 -490 61 0 61 0 -3 409 -4 408 53 -101 c29 -55 139
-239 245 -408 l192 -308 62 0 63 0 0 490 0 490 -56 0 -55 0 3 -400 c2 -220 2
-400 1 -400 -2 0 -19 33 -39 73 -48 96 -78 145 -277 460 l-169 267 -69 0 -69
0 0 -490z"/>
<path d="M17840 12160 l0 -490 65 0 65 0 0 490 0 490 -65 0 -65 0 0 -490z"/>
<path d="M18520 12643 c0 -4 70 -225 157 -490 l157 -483 71 0 71 0 172 483
c95 265 172 486 172 490 0 4 -30 7 -66 5 l-67 -3 -104 -305 c-57 -168 -120
-357 -138 -420 -18 -63 -36 -108 -38 -100 -3 8 -19 65 -36 125 -17 61 -72 243
-124 405 l-93 295 -67 3 c-37 2 -67 -1 -67 -5z"/>
<path d="M19870 12160 l0 -490 275 0 275 0 0 55 0 55 -210 0 -210 0 0 175 0
175 190 0 190 0 0 50 0 50 -190 0 -190 0 0 155 0 155 200 0 200 0 0 55 0 55
-265 0 -265 0 0 -490z"/>
<path d="M23380 12160 l0 -490 65 0 65 0 0 490 0 490 -65 0 -65 0 0 -490z"/>
<path d="M24060 12595 l0 -55 150 0 150 0 0 -435 0 -435 60 0 60 0 0 435 0
435 150 0 150 0 0 55 0 55 -360 0 -360 0 0 -55z"/>
<path d="M25270 12647 c0 -2 70 -130 155 -285 l155 -281 0 -206 0 -205 65 0
65 0 0 212 0 211 160 274 c88 151 160 276 160 279 0 3 -32 4 -72 2 l-72 -3
-119 -232 -118 -232 -117 234 -116 235 -73 0 c-40 0 -73 -2 -73 -3z"/>
</g>
</svg>
